<svg width="40" height="40" viewBox="0 0 40 40" xmlns="http://www.w3.org/2000/svg">
  <!-- Rocket body -->
  <path d="M20 2 C17.5 2 15 4.5 15 9 L15 24 C15 26 17.5 28 20 28 C22.5 28 25 26 25 24 L25 9 C25 4.5 22.5 2 20 2" fill="#3B82F6"/>
  
  <!-- Rocket nose cone -->
  <path d="M20 2 C19 0.8 18.5 0 20 0 C21.5 0 21 0.8 20 2" fill="#1E40AF"/>
  
  <!-- Window -->
  <circle cx="20" cy="10" r="3.5" fill="#60A5FA" stroke="#1E40AF" stroke-width="1"/>
  <circle cx="20" cy="10" r="2.5" fill="#DBEAFE"/>
  
  <!-- Fins -->
  <path d="M15 18 L7.5 24 L7.5 26 L15 22 Z" fill="#EF4444"/>
  <path d="M25 18 L32.5 24 L32.5 26 L25 22 Z" fill="#EF4444"/>
  
  <!-- Exhaust flames -->
  <path d="M17.5 28 C17.5 30 16.5 32 17.5 34 C18.5 36 19 38 20 40 C21 38 21.5 36 22.5 34 C23.5 32 22.5 30 22.5 28" fill="#FCD34D"/>
  <path d="M18.5 28 C18.5 29.5 18 31 18.5 32.5 C19 34 19.5 35.5 20 37 C20.5 35.5 21 34 21.5 32.5 C22 31 21.5 29.5 21.5 28" fill="#FB923C"/>
  <path d="M19.5 28 C19.5 29 19.25 30 19.5 31 C19.75 32 19.75 33 20 34 C20.25 33 20.25 32 20.5 31 C20.75 30 20.5 29 20.5 28" fill="#EF4444"/>
</svg>